<svg height="24px" viewBox="0 0 512 512" fill="#fff" width="24px" xmlns="http://www.w3.org/2000/svg"><path d="m512 285.9375h-226.0625v226.0625h226.0625zm0 0"/><path d="m498.976562 67.320312c-20.125-39.894531-61.484374-67.320312-109.136718-67.320312-67.359375 0-122.15625 54.800781-122.15625 122.160156s54.796875 122.15625 122.15625 122.15625c47.652344 0 89.011718-27.425781 109.136718-67.320312 8.324219-16.5 13.023438-35.128906 13.023438-54.839844 0-19.707031-4.699219-38.335938-13.023438-54.835938zm0 0"/><path d="m131.351562 0-131.351562 231.3125h262.699219zm0 0"/><path d="m0 401.757812 63.648438 110.242188h127.296874l63.648438-110.242188-63.648438-110.246093h-127.296874zm0 0"/></svg>