<svg data-v-445363d5="" version="1.1" id="effect" xmlns="http://www.w3.org/2000/svg" xmlns:xlink="http://www.w3.org/1999/xlink" x="0px" y="0px" width="24px" height="24px" viewBox="0 0 24 24" xml:space="preserve" class="_2Xy1u button-icon" fill="#fff"><path data-v-445363d5="" d="M16,8.9V3.3C16,2.6,15.4,2,14.7,2H9.3C8.6,2,8,2.6,8,3.3v5.6C8,9,8,9,8,9.1L2.3,19.5C2,20,2,20.6,2.4,21.1	c0.4,0.5,1.1,0.9,2,0.9h15.3c0.5,0,1-0.1,1.4-0.4c0.8-0.5,1-1.6,0.5-2.4L16,9.1C16,9,16,9,16,8.9z M9.8,10L10,9.5V9V4.3	C10,4.1,10.1,4,10.3,4h3.4C13.9,4,14,4.1,14,4.3V9v0.5l0.2,0.4l1.3,2.3C15,12.1,14.4,12,13.8,12c-1.2,0-2.2,0.5-3,1.4	c-0.4,0.5-1.1,1.1-1.8,1c-0.7-0.1-1.3-0.9-1.3-0.9l0,0L9.8,10z"></path></svg>